<svg xmlns="http://www.w3.org/2000/svg" fill="none" viewBox="0 0 23 23" height="23" width="23" id="Fit-Screen--Streamline-Core.svg"><desc>Fit Screen Streamline Icon: https://streamlinehq.com</desc><g id="Fit-Screen--Streamline-Core.svg"><path id="Union" fill="#172b4c" fill-rule="evenodd" d="M3.2857142857142856 3.696428571428571c0 -0.2268292857142857 0.183885 -0.4107142857142857 0.4107142857142857 -0.4107142857142857H8.214285714285714c0.6804878571428572 0 1.2321428571428572 -0.5516549999999999 1.2321428571428572 -1.2321428571428572C9.446428571428571 1.373077 8.894773571428571 0.8214285714285714 8.214285714285714 0.8214285714285714H3.696428571428571C2.108607142857143 0.8214285714285714 0.8214285714285714 2.108607142857143 0.8214285714285714 3.696428571428571V8.214285714285714c0 0.6804878571428572 0.5516484285714285 1.2321428571428572 1.2321428571428572 1.2321428571428572 0.6804878571428572 0 1.2321428571428572 -0.5516549999999999 1.2321428571428572 -1.2321428571428572V3.696428571428571ZM14.785714285714285 0.8214285714285714c-0.6804878571428572 0 -1.2321428571428572 0.5516484285714285 -1.2321428571428572 1.2321428571428572 0 0.6804878571428572 0.5516549999999999 1.2321428571428572 1.2321428571428572 1.2321428571428572h4.517857142857142c0.22687857142857143 0 0.4107142857142857 0.183885 0.4107142857142857 0.4107142857142857V8.214285714285714c0 0.6804878571428572 0.5516714285714285 1.2321428571428572 1.2321428571428572 1.2321428571428572s1.2321428571428572 -0.5516549999999999 1.2321428571428572 -1.2321428571428572V3.696428571428571c0 -1.5878214285714285 -1.2871785714285713 -2.875 -2.875 -2.875H14.785714285714285Zm6.160714285714286 12.732142857142856c0.6804714285714286 0 1.2321428571428572 0.5516549999999999 1.2321428571428572 1.2321428571428572v4.517857142857142c0 1.5878214285714285 -1.2871785714285713 2.875 -2.875 2.875H14.785714285714285c-0.6804878571428572 0 -1.2321428571428572 -0.5516714285714285 -1.2321428571428572 -1.2321428571428572S14.105226428571427 19.714285714285715 14.785714285714285 19.714285714285715h4.517857142857142c0.22687857142857143 0 0.4107142857142857 -0.18383571428571427 0.4107142857142857 -0.4107142857142857V14.785714285714285c0 -0.6804878571428572 0.5516714285714285 -1.2321428571428572 1.2321428571428572 -1.2321428571428572ZM3.2857142857142856 14.785714285714285c0 -0.6804878571428572 -0.5516549999999999 -1.2321428571428572 -1.2321428571428572 -1.2321428571428572 -0.6804944285714286 0 -1.2321428571428572 0.5516549999999999 -1.2321428571428572 1.2321428571428572v4.517857142857142c0 1.5878214285714285 1.2871785714285713 2.875 2.875 2.875H8.214285714285714c0.6804878571428572 0 1.2321428571428572 -0.5516714285714285 1.2321428571428572 -1.2321428571428572S8.894773571428571 19.714285714285715 8.214285714285714 19.714285714285715H3.696428571428571c-0.2268292857142857 0 -0.4107142857142857 -0.18383571428571427 -0.4107142857142857 -0.4107142857142857V14.785714285714285Z" clip-rule="evenodd" stroke-width="1"></path></g></svg>