<svg width="17" height="19" viewBox="0 0 17 19" fill="none" xmlns="http://www.w3.org/2000/svg">
<path d="M10.0606 16.4246C9.02918 17.4561 7.63024 18.0355 6.17155 18.0355C4.71286 18.0355 3.31391 17.4561 2.28246 16.4246C1.25101 15.3932 0.671546 13.9942 0.671546 12.5355C0.671546 11.0768 1.25101 9.67789 2.28246 8.64644L9.70708 1.22181C10.4572 0.471669 11.4746 0.0502413 12.5355 0.0502417C13.5964 0.050242 14.6138 0.471669 15.3639 1.22181C16.1141 1.97196 16.5355 2.98938 16.5355 4.05024C16.5355 5.11111 16.1141 6.12852 15.3639 6.87867L9.35353 12.8891C8.88469 13.3579 8.2488 13.6213 7.58576 13.6213C6.92272 13.6213 6.28683 13.3579 5.81799 12.8891C5.34915 12.4202 5.08576 11.7844 5.08576 11.1213C5.08576 10.4583 5.34915 9.82238 5.81799 9.35354L11.1213 4.05024L12.182 5.1109L6.87865 10.4142C6.69112 10.6017 6.58576 10.8561 6.58576 11.1213C6.58576 11.3865 6.69112 11.6409 6.87865 11.8284C7.06619 12.016 7.32054 12.1213 7.58576 12.1213C7.85098 12.1213 8.10533 12.016 8.29287 11.8284L14.3033 5.81801C14.5354 5.58586 14.7196 5.31026 14.8452 5.00695C14.9708 4.70364 15.0355 4.37855 15.0355 4.05024C15.0355 3.72194 14.9708 3.39685 14.8452 3.09353C14.7196 2.79022 14.5354 2.51462 14.3033 2.28247C14.0711 2.05033 13.7955 1.86618 13.4922 1.74054C13.1889 1.61491 12.8638 1.55024 12.5355 1.55024C12.2072 1.55024 11.8821 1.61491 11.5788 1.74054C11.2755 1.86618 10.9999 2.05033 10.7677 2.28247L3.34312 9.7071C2.59297 10.4572 2.17155 11.4747 2.17155 12.5355C2.17155 13.5964 2.59297 14.6138 3.34312 15.3639C4.09326 16.1141 5.11068 16.5355 6.17155 16.5355C7.23241 16.5355 8.24983 16.1141 8.99997 15.3639L15.7175 8.64644L16.7781 9.7071L10.0606 16.4246Z" fill="#8FBDBA"/>
</svg>
