<svg xmlns="http://www.w3.org/2000/svg" fill="none" viewBox="0 0 23 23" height="23" width="23" id="Layout-Grid--Streamline-Core.svg"><desc>Layout Grid Streamline Icon: https://streamlinehq.com</desc><g id="Layout-Grid--Streamline-Core.svg"><path id="Union" fill="#172b4c" fill-rule="evenodd" d="M0.8214285714285714 3.2857142857142856C0.8214285714285714 1.9247221428571428 1.9247221428571428 0.8214285714285714 3.2857142857142856 0.8214285714285714h4.928571428571429c1.3609921428571428 0 2.4642857142857144 1.1032935714285714 2.4642857142857144 2.4642857142857144v4.928571428571429c0 1.3609921428571428 -1.1032935714285714 2.4642857142857144 -2.4642857142857144 2.4642857142857144H3.2857142857142856C1.9247221428571428 10.678571428571429 0.8214285714285714 9.575277857142856 0.8214285714285714 8.214285714285714V3.2857142857142856Zm11.5 0c0 -1.3609921428571428 1.1032935714285714 -2.4642857142857144 2.4642857142857144 -2.4642857142857144h4.928571428571429c1.3609428571428572 0 2.4642857142857144 1.1032935714285714 2.4642857142857144 2.4642857142857144v4.928571428571429c0 1.3609921428571428 -1.103342857142857 2.4642857142857144 -2.4642857142857144 2.4642857142857144H14.785714285714285c-1.3609921428571428 0 -2.4642857142857144 -1.1032935714285714 -2.4642857142857144 -2.4642857142857144V3.2857142857142856ZM3.2857142857142856 12.321428571428571C1.9247221428571428 12.321428571428571 0.8214285714285714 13.42472214285714 0.8214285714285714 14.785714285714285v4.928571428571429c0 1.3609428571428572 1.1032935714285714 2.4642857142857144 2.4642857142857144 2.4642857142857144h4.928571428571429c1.3609921428571428 0 2.4642857142857144 -1.103342857142857 2.4642857142857144 -2.4642857142857144V14.785714285714285c0 -1.3609921428571428 -1.1032935714285714 -2.4642857142857144 -2.4642857142857144 -2.4642857142857144H3.2857142857142856ZM12.321428571428571 14.785714285714285c0 -1.3609921428571428 1.1032935714285714 -2.4642857142857144 2.4642857142857144 -2.4642857142857144h4.928571428571429c1.3609428571428572 0 2.4642857142857144 1.1032935714285714 2.4642857142857144 2.4642857142857144v4.928571428571429c0 1.3609428571428572 -1.103342857142857 2.4642857142857144 -2.4642857142857144 2.4642857142857144H14.785714285714285c-1.3609921428571428 0 -2.4642857142857144 -1.103342857142857 -2.4642857142857144 -2.4642857142857144V14.785714285714285Z" clip-rule="evenodd" stroke-width="1"></path></g></svg>