<svg width="20" height="20" viewBox="0 0 20 20" fill="none" xmlns="http://www.w3.org/2000/svg">
<path d="M10 1.66666C10.6631 1.66666 11.2989 1.93005 11.7678 2.39889C12.2366 2.86773 12.5 3.50362 12.5 4.16666V9.16666C12.5 9.8297 12.2366 10.4656 11.7678 10.9344C11.2989 11.4033 10.6631 11.6667 10 11.6667C9.33698 11.6667 8.70109 11.4033 8.23225 10.9344C7.76341 10.4656 7.50002 9.8297 7.50002 9.16666V4.16666C7.50002 3.50362 7.76341 2.86773 8.23225 2.39889C8.70109 1.93005 9.33698 1.66666 10 1.66666ZM15.8334 9.16666C15.8334 12.1083 13.6584 14.5333 10.8334 14.9417V17.5H9.16669V14.9417C6.34169 14.5333 4.16669 12.1083 4.16669 9.16666H5.83335C5.83335 10.2717 6.27234 11.3315 7.05374 12.1129C7.83514 12.8943 8.89495 13.3333 10 13.3333C11.1051 13.3333 12.1649 12.8943 12.9463 12.1129C13.7277 11.3315 14.1667 10.2717 14.1667 9.16666H15.8334Z" fill="white"/>
</svg>
