<svg xmlns="http://www.w3.org/2000/svg" fill="none" viewBox="0 0 23 23" height="23" width="23" id="User-Head-Side--Streamline-Core.svg"><desc>User Head Side Streamline Icon: https://streamlinehq.com</desc><g id="User-Head-Side--Streamline-Core.svg"><path id="Union" fill="#172b4c" fill-rule="evenodd" d="M16.31656142857143 1.2585090714285714C14.788096428571428 0.40249999999999997 13.059120714285713 -0.03070680714285714 11.307621428571428 0.003482183571428572 9.556122142857143 0.03767104285714286 7.845382142857143 0.5380209285714285 6.351499285714286 1.4530249999999998c-1.493882857142857 0.9150057142857143 -2.7169242857142857 2.211597857142857 -3.543232142857143 3.7563107142857137 -0.8263078571428571 1.5447292857142858 -1.2260117142857143 3.281738571428571 -1.157967857142857 5.032252142857143 0.06803071428571429 1.7505135714285716 0.6013678571428571 3.4512649999999994 1.5450742857142856 4.927191428571428C4.047359285714285 16.501185714285715 5.206049999999999 17.606992857142856 6.571428571428571 18.395235714285715V22.178571428571427c0 0.45359285714285713 0.36777 0.8214285714285714 0.8214285714285714 0.8214285714285714h8.214285714285714c0.4536585714285714 0 0.8214285714285714 -0.36783571428571427 0.8214285714285714 -0.8214285714285714v-3.2857142857142856h2.4642857142857144c0.6535285714285713 0 1.280442857142857 -0.25973571428571424 1.7425785714285713 -0.7218714285714286S21.357142857142858 17.0821 21.357142857142858 16.428505714285713v-6.571592857142856c-0.00032857142857142856 -1.7518278571428572 -0.4675571428571429 -3.471932142857143 -1.3533857142857142 -4.983212857142857 -0.8859928571428571 -1.5112971428571427 -2.158714285714286 -2.7591785714285715 -3.687195714285714 -3.6151909285714283Z" clip-rule="evenodd" stroke-width="1"></path></g></svg>