<svg xmlns="http://www.w3.org/2000/svg" fill="none" viewBox="0 0 23 23" height="23" width="23" id="Horizontal-Toggle-Button--Streamline-Core.svg"><desc>Horizontal Toggle Button Streamline Icon: https://streamlinehq.com</desc><g id="Horizontal-Toggle-Button--Streamline-Core.svg"><path id="Union" fill="#172b4c" fill-rule="evenodd" d="M22.178571428571427 5.75c0 -2.721967857142857 -2.2065214285714285 -4.928571428571429 -4.928571428571429 -4.928571428571429h-11.5c-2.721967857142857 0 -4.928571428571429 2.2066035714285714 -4.928571428571429 4.928571428571429s2.2066035714285714 4.928571428571429 4.928571428571429 4.928571428571429h11.5c2.72205 0 4.928571428571429 -2.2066035714285714 4.928571428571429 -4.928571428571429Zm0 11.5c0 -2.721967857142857 -2.2065214285714285 -4.928571428571429 -4.928571428571429 -4.928571428571429h-11.5c-2.721967857142857 0 -4.928571428571429 2.2066035714285714 -4.928571428571429 4.928571428571429 0 2.72205 2.2066035714285714 4.928571428571429 4.928571428571429 4.928571428571429h11.5c2.72205 0 4.928571428571429 -2.2065214285714285 4.928571428571429 -4.928571428571429Z" clip-rule="evenodd" stroke-width="1"></path><path id="Union_2" fill="#fafafa" fill-rule="evenodd" d="M17.25 3.696428571428571c-1.134162857142857 0 -2.0535714285714284 0.9194085714285715 -2.0535714285714284 2.0535714285714284s0.9194085714285715 2.0535714285714284 2.0535714285714284 2.0535714285714284c1.1342285714285714 0 2.0535714285714284 -0.9194085714285715 2.0535714285714284 -2.0535714285714284s-0.9193428571428571 -2.0535714285714284 -2.0535714285714284 -2.0535714285714284Zm-11.5 11.5c-1.134162857142857 0 -2.0535714285714284 0.9194085714285715 -2.0535714285714284 2.0535714285714284 0 1.1342285714285714 0.9194085714285715 2.0535714285714284 2.0535714285714284 2.0535714285714284s2.0535714285714284 -0.9193428571428571 2.0535714285714284 -2.0535714285714284c0 -1.134162857142857 -0.9194085714285715 -2.0535714285714284 -2.0535714285714284 -2.0535714285714284Z" clip-rule="evenodd" stroke-width="1"></path></g></svg>