<svg xmlns="http://www.w3.org/2000/svg" fill="none" viewBox="0 0 14 14" height="14" width="14" id="Cog-Automation--Streamline-Core.svg"><desc>Cog Automation Streamline Icon: https://streamlinehq.com</desc><g id="Cog-Automation--Streamline-Core.svg"><path id="Vector" fill="#ffd6de" d="M5.09385 1.88462 5.55693 0.689231c0.0781 -0.202393 0.2155 -0.376481 0.39421 -0.499464C6.12985 0.0667842 6.34153 0.00064083 6.55847 0h0.88308c0.21693 0.00064083 0.42862 0.0667842 0.60733 0.189767 0.17871 0.122983 0.31611 0.297071 0.39421 0.499464l0.46307 1.195389 1.57234 0.90461 1.2707 -0.19385c0.2116 -0.02872 0.427 0.00612 0.6188 0.10008 0.1917 0.09396 0.3512 0.2428 0.4582 0.42762l0.4307 0.75384c0.1104 0.18776 0.1613 0.40458 0.1459 0.62184 -0.0154 0.21726 -0.0963 0.42475 -0.232 0.59509l-0.7862 1.00153v1.80924l0.8077 1.00153c0.1358 0.17034 0.2166 0.37783 0.232 0.59509 0.0154 0.21726 -0.0354 0.43408 -0.1458 0.62186l-0.4308 0.7538c-0.107 0.1848 -0.2665 0.3337 -0.4582 0.4276 -0.1918 0.094 -0.4071 0.1288 -0.6187 0.1001L10.5 11.2108l-1.5723 0.9046 -0.46308 1.1954c-0.07809 0.2024 -0.21549 0.3765 -0.3942 0.4994 -0.17871 0.123 -0.3904 0.1892 -0.60734 0.1898h-0.90461c-0.21694 -0.0006 -0.42862 -0.0668 -0.60733 -0.1898 -0.17871 -0.1229 -0.31611 -0.297 -0.39421 -0.4994l-0.46308 -1.1954 -1.5723 -0.9046 -1.27077 0.1938c-0.2116 0.0287 -0.42696 -0.0061 -0.61871 -0.1001 -0.19176 -0.0939 -0.35125 -0.2428 -0.45822 -0.4276l-0.430765 -0.7538c-0.110383 -0.18778 -0.16124 -0.4046 -0.145859 -0.62186 0.015381 -0.21726 0.096277 -0.42475 0.232012 -0.59509l0.786152 -1.00153V6.09538L0.8077 5.09385c-0.135735 -0.17034 -0.216631 -0.37783 -0.232013 -0.59509 -0.015381 -0.21726 0.035476 -0.43408 0.145859 -0.62184l0.430774 -0.75384c0.10696 -0.18482 0.26645 -0.33366 0.45821 -0.42762 0.19175 -0.09396 0.40711 -0.1288 0.61871 -0.10008l1.27077 0.19385 1.59384 -0.90461Z" stroke-width="1"></path><path id="Vector 383" fill="#ee3158" d="m6.59011 4.89982 2.36364 1.26393c0.63335 0.33867 0.64328 1.24315 0.01752 1.59565L6.60763 9.09085c-0.60674 0.34178 -1.3569 -0.09663 -1.3569 -0.79301V5.70246c0 -0.68755 0.73307 -1.12685 1.33938 -0.80264Z" stroke-width="1"></path></g></svg>